<svg xmlns:xlink="http://www.w3.org/1999/xlink" xmlns="http://www.w3.org/2000/svg" width="200" height="60" fill="#131214">
  <path d="M75.9 42.1l15.3-21.9H76.5V14h24v5.4L85 41.3h15.5v6.3H75.9v-5.5zm46.2 5.4V45c-.6 1-1.7 1.7-3 2.2s-2.5.8-3.6.8c-3.1 0-5.7-1.1-8.1-3.3-2.3-2.2-3.5-5.1-3.5-8.6s1.2-6.3 3.5-8.5 5-3.3 8.1-3.3c2.1 0 5.1.8 6.6 3v-2.5h6.7v22.8l-6.7-.1zm0-11.3c0-3.3-2.6-5.4-5.5-5.4-1.5 0-2.8.5-4 1.6-1.1 1-1.7 2.3-1.7 3.8 0 1.6.6 2.9 1.7 3.9 1.2 1 2.5 1.5 4 1.5 3-.1 5.5-2.2 5.5-5.4zm19.8 11.3h-6.8V24.8h6.8v5.5c1.1-4 3.8-6 6.4-6 1.5 0 2.8.3 3.9.8l-1.2 6.1c-.9-.4-2.1-.7-3.5-.7-3.8 0-5.7 3-5.7 9.1v7.9h.1zm13.8-35.1h6.8v35.1h-6.8V12.4zm29.9 35.1V45c-.6 1-1.7 1.7-3 2.2s-2.5.8-3.6.8c-3.1 0-5.7-1.1-8.1-3.3-2.3-2.2-3.5-5.1-3.5-8.6s1.2-6.3 3.5-8.5c2.4-2.2 5-3.3 8.1-3.3 2.1 0 5.1.8 6.6 3v-2.5h6.7v22.8l-6.7-.1zm0-11.3c0-3.3-2.6-5.4-5.5-5.4-1.5 0-2.8.5-4 1.6-1.1 1-1.7 2.3-1.7 3.8 0 1.6.6 2.9 1.7 3.9 1.2 1 2.5 1.5 4 1.5 2.9-.1 5.5-2.2 5.5-5.4zM21.8 51.3c.1.6.3 1.1.6 1.7.2.4.6.7.9.9.4.2.9.4 1.4.5h.8c.2 0 .5-.1.7-.2.5-.2.8-.5 1.1-.8.4-.5.7-1 .8-1.6 0-.2-.2-.3-.3-.1-.4.5-.7.9-1.2 1.2-.3.2-.6.4-.9.5-.2.1-.3.1-.5.1h-.4c-.6-.1-1.3-.4-1.8-.9-.4-.4-.7-.8-1.1-1.3.1-.3-.1-.2-.1 0zm34-22.1l-1.1-.3c-.8-.1-1.6-.2-2.4-.1l-2.3.3-1.1.3c-.3.1-.8.2-1.1.4-.4.1-.8.3-1.1.4l-.7.2-.5.3-1.1.6c-.2.1-.3.2-.5.3l-.5.3-.4.3c-.2.1-.3.2-.5.4-.3.2-.6.5-.9.8l-1.2 1.2-.6.4-.2.2c-.1.1-.1.2-.2.2l-.4.5c-.1.2-.2.3-.4.5l-.4.5-.3.5-.3.3c0 .1-.1.1-.1.1l-.3.5-.1.3c-.1.1-.1.2-.1.3-.2.4-.4.7-.5 1.1l-.2.5c-.1.2-.1.4-.2.6l-.6 2.2c-.3 1.5-.4 3.1-.2 4.7.1.8.3 1.5.5 2.3.1.4.3.7.5 1.1s.4.7.6 1c-.5-1.4-.9-2.8-.9-4.4 0-1.5.2-3 .6-4.4l.7-2.1c.1-.2.1-.4.2-.5l.2-.5c.1-.4.3-.7.5-1 .7-1.3 1.5-2.5 2.5-3.6l1.6-1.6c.3-.2.6-.5.9-.7.1-.1.3-.2.4-.4l.5-.3c1.2-.9 2.5-1.6 3.9-2.2.4-.1.7-.3 1.1-.4s.7-.2 1.1-.4c.7-.2 1.5-.4 2.2-.5s1.5-.2 2.2-.1c.8 0 1.5.2 2.2.5-.3-.3-.7-.5-1-.6zm-1 4.7c-.1.5.1 1 .6 1.2s.9-.1 1.1-.6c.1-.5-.1-1-.6-1.2a.8.8 0 0 0-1.1.6zm-6.7 1.8c-.1.5.1 1 .6 1.2s.9-.1 1.1-.6c.1-.5-.1-1-.6-1.2s-.9.1-1.1.6zm-3.6-12.2c-.2 0-.3-.1-.4-.2v.2a1.11 1.11 0 0 0 1.1 1.1c.6 0 1.1-.6 1.1-1.2a1.11 1.11 0 0 0-1.1-1.1c-.3 0-.5.1-.7.4h.1c.3 0 .5.2.5.4-.2.1-.4.4-.6.4zm-10.6-5.8c.1 0 .2-.1.3-.1.8-.8 2.3-.7 2.8-.4.2.2.5.1.7-.2.1-.3.1-.7-.2-.8-.9-.6-2.9-.5-3.9.5-.2.2-.2.6-.1.9.1 0 .2.1.4.1zm-1.8 3.6c-.1.1-.1.1-.1.2l-.1.2c0 .1-.1.2-.1.2 0 .1-.1.2-.1.2-.1.3-.2.6-.2.9v1.4c0 .2.1.3.1.5l.1.2c0 .1.1.2.1.2.1.2.1.3.2.5.1.3.3.6.5.8.4.5 1 .9 1.6 1.1s1.2.3 1.8.3 1.2-.1 1.8-.2c.1 0 .3-.1.4-.1l.4-.2c.3-.1.5-.2.8-.4.3-.1.5-.3.7-.5l.2-.2c.1-.1.1-.1.1-.2.1-.1.2-.2.2-.4.1-.2.3-.5.4-.8 0-.1.1-.2.1-.3 0 .1-.1.2-.1.3-.1.3-.2.5-.4.8-.3.5-.8.9-1.3 1.1-1 .5-2.2.7-3.3.5-.6-.1-1.1-.2-1.6-.5-.5-.2-.9-.6-1.2-1-.1-.2-.3-.4-.4-.7-.1-.2-.2-.5-.2-.8 0-.1 0-.3-.1-.4v-1.2c.1-.5.2-1 .5-1.5.3-.4.6-.8 1.1-1.1.9-.6 2-.9 3.1-.9.3 0 .6 0 .8.1.3.1.5.1.8.3.5.2.9.6 1.3 1.1s.6 1 .8 1.5c.1.4.2.9.2 1.3v-.5c0-.3-.1-.6-.2-.9-.2-.6-.4-1.1-.7-1.6s-.8-.9-1.3-1.2c-.3-.2-.5-.3-.8-.4s-.6-.2-.9-.2h-1.4c-.2 0-.3 0-.5.1l-.5.1c-.2 0-.3.1-.5.1s-.3.1-.4.2c-.1 0-.1.1-.2.1l-.1.6c-.5.3-1 .8-1.4 1.3z"/>
  <path d="M34.6 25.3c-.2 0-.4-.1-.5-.2v.2c0 .8.6 1.4 1.4 1.4s1.4-.7 1.3-1.5c0-.8-.6-1.4-1.4-1.4-.4 0-.7.2-.9.4h.1c.3 0 .6.2.6.5a.65.65 0 0 1-.6.6zm8.4-4.6c0-.1.1-.1.1-.1-.1 0-.1.1-.1.2v-.1zm.2-.3c-.1.1-.1.1 0 0zm2.8-1.8h.1zm2.1 1h0zm-1.3-.9c-.1 0-.1 0 0 0-.1 0-.1 0 0 0zm-1.7 7.2h0zm-2.8-9.1l1.2 2.2c.3-.2 1.2-.4 1.2-.4v-.1c-.4-.5-.6-1-1-1.7.8-.5 2.1-.4 2.5-.1.2.2.5.1.7-.2.1-.3.1-.6-.2-.8-.8-.5-2.4-.5-3.5.1-.6-1.1-1.4-1.9-2.3-2.7.3-.2.6-.4.9-.5l1.4-.6 1.5-.6c.5-.2 1-.5 1.4-.8.5-.3.9-.7 1.2-1.2.1-.1.2-.2.2-.4.1-.1.1-.2.2-.4l.1-.2c0-.1.1-.1.1-.2h.1V8c.1-.3.1-.6 0-.9s-.1-.6-.3-.9c-.1-.3-.3-.6-.5-.8 0-.2-.1-.4-.3-.4l-.2-.2-.2-.1-.1-.1s-.1 0-.1-.1l-.2-.1c-.1 0-.2-.1-.2-.1l-.2-.1c-.2 0-.3-.1-.5-.1h-.4c-.6 0-1.2.1-1.8.4-.3.1-.5.2-.8.4-.1-.4-.2-.7-.5-1.1-.8-1.1-1.8-1.4-3-.9-.5.2-1 .5-1.5.9 0-.3-.1-.6-.1-.9-.1-.3-.2-.6-.4-.9-.1-.3-.3-.6-.6-.9-.1-.1-.2-.3-.4-.4-.1-.1-.3-.2-.5-.3-.3-.2-.7-.3-1.1-.3s-.7 0-1 .1l-.9.3c-.2.1-.3.1-.4.2l-.4.4c-.6.4-1 .9-1.3 1.5-.2.4-.4.8-.5 1.2-.5-1.2-1.2-2-2.1-1.9-1.2.1-2.1.8-2.5 1.9-.5 1.2-.5 2.8-.4 4.5-1.1-1.7-2.1-2.9-3.7-2.5-.8.2-1.3.8-1.6 1.6-.6 1.9 0 4.3 1.2 6.9-1.3-1.1-2.5-1.7-3.7-1.4-.9.3-1.3 1.1-1.4 1.9-.2 1.6.9 3.7 2.3 5.6-1.3-.8-2.5-1.2-3.4-.7-.8.5-1.1 1.3-1.1 2.2 0 1.3.8 2.7 1.9 4.1-1.1-.7-2.1-.9-2.9-.3-.6.5-1 1.2-1 2-.1 1.4.9 3 2.2 4.5-.9-.6-1.6-.9-2.5-.8-.4 0-.8.4-1 .6-1.3 1.7.1 4.2 1.9 6.3-.9-.5-1.7-.8-2.5-.6-.4.1-.8.3-1 .6-1.1 1.8.2 4.2 2.9 6.7-.1.4-.2.8-.4 1.1-.2.6-.6 3-.7 3.8-.2 1.9.4 3.5 2.2 5.1 3.3 3 10.2 4.8 16.3 4.8 2.4 0 4.7-.3 6.7-.9 1.7-.5 2.3-1.8 2.1-3.7-.1-.2-.1-.2-.1.1 0 1.9-1.6 2.1-2.3 2.4-2.9 1-7.3 1.1-11.6.4-4.4-.7-8.1-2.2-10.2-4.1-1.4-1.3-1.8-2.7-1.8-4.1 0-.5.6-2.9.7-3.4.5-1.7 1.2-3.5 1.8-5.3.4 1 1.5 2.3 1.9 2.6.1.1.2-.1.2-.2-.4-.9-1.4-3-1.5-4.2.4-1.1.8-2.1 1.2-3 .2 1.1 1.3 2.7 2.2 3.3.1.1.3-.1.2-.2-.6-1.2-1.7-3.2-1.6-5.1h0c.3-.8.7-1.5 1-2.2.4 1.4 1.4 2.9 2.1 3.7.1.1.3 0 .3-.1-.5-1.5-1.1-3.9-1.2-5.8.1-.3.3-.6.4-.9V29c.3-.5.5-1 .8-1.5.4 1.4 1.3 2.8 2 3.6.1.2.4 0 .3-.2-.4-1.4-1-3.7-1.2-5.5.3-.5.6-1.1.9-1.6h0v-.1c.2-.3.4-.6.5-.9.4 1.2 1.4 2.7 2.1 3.4.1.2.4 0 .3-.2-.4-1.3-1.1-3.4-1.3-5.1.3-.5.6-1 1-1.5l.6-.9.1-.1c.4 1.1 1.3 2.5 1.9 3.2.1.2.4 0 .3-.2-.3-1.2-.8-3.1-1-4.6.1-.1.1-.1.1-.2v-.1c.9-1.3 2.2-2.4 3.9-3.1h.1c1.4-.7 2.9-.9 4.1-.9 1.8.7 3.7 2.4 4.6 4.2.1.2.3.1.3-.1-.1-1.2-.2-2.4-.6-3.2 1.3.8 2.5 1.8 3.4 3.4zM9.4 41.1c-.3-.7-.2-1.9 0-2.3 0 1.8 1.4 3.6 1.8 3.9-.4-.1-1.4-.6-1.8-1.6zm1.7-5.8c-.4-.8-.5-2.2-.3-2.7.3 2.1 1.9 4 2.4 4.3-.5-.1-1.6-.5-2.1-1.6zm1.7-5.4c-.5-.9-.5-2.5-.3-3.1.3 2.4 2.2 4.6 2.8 4.9-.5 0-1.8-.5-2.5-1.8zm2.2-6.1c-.5-.9-.5-2.5-.3-3.1.3 2.4 2.2 4.6 2.8 4.9-.4 0-1.8-.5-2.5-1.8zm2.1-6.2c-.5-1.1-.4-2.8-.1-3.4.1 2.7 2.1 5.3 2.7 5.7-.5-.2-1.9-.8-2.6-2.3zm3.6-6.5c-.3-1.3 0-3.2.4-3.8-.3 3.1 1.2 6.7 1.8 7.2-.7-.4-1.8-1.6-2.2-3.4zm5.2-4.2c-.1-1.3.7-3.1 1.2-3.7-.9 2.9-.1 6.8.4 7.4-.7-.5-1.5-1.9-1.6-3.7zm4 5c0-.1-.1-.1-.1-.2s-.1-.1-.1-.2l-.2-.5c-.1-.2-.1-.3-.2-.5-.1-.5-.3-1.2-.3-1.8-.1-.6-.1-1.3-.1-1.9 0-.3.1-.6.1-1s.1-.6.3-.9c-.1.3-.1.6-.1.9v1c0 .6.1 1.3.1 1.9l.3 1.9c.1.6.3 1.2.4 1.9 0-.3 0-.4-.1-.6zm6-6.4c-.3 1.1-.8 2.1-1.2 3.2l-.3.8c-.1.3-.2.6-.3.8 0 .1-.1.2-.1.3-.1.3-.2.5-.3.8-.4 0-.7.1-1.1.1.1-1.2.4-2.1.6-2.9 1.1-3.8-1.3-3.7-1.8-1.9-.5 1.7-.3 3.9 0 5.2-.4.1-.8.3-1.2.4-.1-.3-.1-.6-.1-1 0-.3-.1-.6-.1-.8 0-.3 0-.6-.1-.9V7.9c0-.6.1-1.1.1-1.7s.2-1.1.3-1.6l.6-1.5c.2-.4.6-.8.9-1.1l.1-.1h.1l.1-.1.3-.2c.2-.1.5-.2.7-.2.5-.1.9-.1 1.3.1.1.1.2.1.3.2s.2.1.2.2c.2.2.3.4.4.6s.2.5.3.7c.4.3.5.5.5.8 0 .5 0 1-.2 1.5zm1.6 5.5c-.1-.8.2-2.4 1.4-3.8.8-1 2.1-2 2.8-2-2.6 1.4-4.1 5-4.2 5.8zm2.4 1.7c.8-.8 1.4-1.2 2.1-1.7 3-2.1 1.2-3.4-.2-2.4-1.3.9-2.4 2.6-3 3.7-.2-.1-.5-.2-.7-.3.3-.8.7-1.5 1.1-2.2a14.31 14.31 0 0 1 1.9-2.4c.4-.4.7-.7 1.1-.9.4-.3.8-.5 1.2-.7a3.08 3.08 0 0 1 1.3-.3h.4c.1 0 .2 0 .3.1.1 0 .1 0 .1.1.1 0 .1 0 .1.1l.1.1h.2l.1-.1.3.3c.1.2.3.3.4.5s.1.4.2.6v1c0 .1 0 .1-.1.2l-.1.2c0 .1-.1.2-.1.3l-.1.2-.1-.1c-.2.4-.6.7-.9 1.1-.7.6-1.7 1.1-2.6 1.6-.8.4-1.5.9-2.1 1.6-.3-.3-.6-.5-.9-.6z"/>
  <path d="M28.7 60c-6.5 0-13.3-2-16.5-4.9-1.8-1.6-2.5-3.2-2.2-5.3.1-.8.6-3.2.7-3.8a12.59 12.59 0 0 0 .3-1c-3-2.8-4-5.1-2.9-6.9.2-.4.8-.7 1.2-.8.5-.1 1.1 0 1.8.2-1.3-1.6-2.6-4-1.3-5.8.2-.3.8-.7 1.2-.8h.3c.5 0 .9.1 1.3.3-1.1-1.4-1.6-2.7-1.5-3.8 0-.9.4-1.6 1.1-2.1.3-.2.7-.4 1.1-.4s.7.1 1.2.3c-1-1.2-1.5-2.4-1.5-3.4 0-1.1.4-1.9 1.2-2.4a1.69 1.69 0 0 1 1-.3c.5 0 1 .2 1.7.5-1-1.5-2-3.4-1.8-4.9.2-1.1.7-1.8 1.6-2.1.2-.1.5-.1.8-.1.7 0 1.5.3 2.4.9-1.1-2.5-1.4-4.6-.9-6.2.3-1 .9-1.6 1.7-1.8.2-.1.4-.1.6-.1 1.2 0 2.1.9 2.9 2-.1-1.6.1-2.9.4-3.8.5-1.3 1.4-2 2.7-2.1h.1c1 0 1.6.8 2 1.6.1-.2.2-.5.4-.7.4-.6.9-1.2 1.4-1.5l.4-.2.1-.1c.1-.1.3-.2.5-.2.4-.2.7-.2 1-.3h1.1c.4 0 .8.1 1.1.3.2.1.4.2.5.3l.4.4c.3.3.5.6.7 1a12.59 12.59 0 0 1 .3 1c0 .2.1.4.1.5.5-.3.9-.6 1.3-.7s.7-.2 1.1-.2c.8 0 1.6.4 2.2 1.2.2.3.4.6.5.9l.6-.3c.4-.2 1-.4 1.6-.4h.5c.1 0 .3 0 .4.1h.1c.1 0 .1 0 .2.1h.2c.1 0 .1 0 .2.1l.3.1s.1 0 .1.1l.3.2.2.2c0 .1.1.1.2.2l.1.1c.2.3.4.6.6.8.2.3.2.7.3 1h0v1l-.2.4v.1c0 .1 0 .1-.1.2L48 9l-.2.3-.1.1c-.1.1-.1.2-.2.4-.4.5-.8.9-1.3 1.2-.4.3-.9.5-1.5.8-.4.2-.8.3-1.1.5-.1.1-.2.1-.3.1-.5.2-.9.4-1.4.6l-.6.3c.8.6 1.5 1.5 2 2.4.5-.3 1.2-.4 1.9-.4.6 0 1.2.1 1.6.4.3.2.5.7.3 1-.1.2-.4.4-.6.4-.1 0-.2 0-.4-.1-.1-.1-.5-.2-.9-.2s-.8.1-1.1.2c.3.5.5.9.8 1.4 0 0 0 .1.1.1v.2l-.2.1c-.4.1-1 .3-1.2.4l-.2.1-.1-.2c-.4-.7-.8-1.3-1.3-2.2-.6-1.2-1.5-2.2-2.6-2.8.3.8.4 1.8.4 2.7 0 .1 0 .2-.1.3s-.2.1-.3.1a.76.76 0 0 1-.4-.2c-.8-1.7-2.6-3.3-4.4-4.1-1.5 0-2.9.3-4 .9h0a9 9 0 0 0-3.8 3.1l-.2.2c.2 1.6.8 3.7 1 4.5 0 .1 0 .2-.1.4-.1.1-.2.2-.3.2s-.2-.1-.3-.1c-.5-.5-1.4-1.7-1.8-2.8-.1.2-.3.4-.4.6-.3.4-.6.9-.9 1.4.2 1.5.8 3.5 1.3 4.9.1.1 0 .3-.1.4s-.2.2-.4.2c-.1 0-.2-.1-.3-.1-.6-.6-1.5-1.9-2-3.1-.1.2-.2.3-.3.5h0l-.9 1.5a30.39 30.39 0 0 0 1.2 5.4c0 .1 0 .2-.1.4-.1.1-.2.2-.3.2s-.2-.1-.3-.1c-.6-.7-1.4-1.9-1.8-3.2-.2.4-.4.7-.5 1.1v.1l-.4.8c.1 1.8.8 4.2 1.2 5.7 0 .1 0 .2-.1.3s-.2.2-.3.2-.2-.1-.3-.1c-.6-.8-1.5-2-1.9-3.2-.3.6-.5 1.2-.8 1.7 0 1.7.9 3.6 1.6 4.9.1.1.1.2 0 .4 0-.2-.1-.2-.2-.2s-.2 0-.2-.1c-.8-.6-1.7-1.8-2.1-2.8-.2.6-.6 1.4-.9 2.4.1 1.1 1 3 1.5 4 .1.1.1.2 0 .3-.2.1-.3.2-.4.2s-.1 0-.2-.1c-.5-.3-1.3-1.4-1.8-2.2-.7 1.9-1.2 3.5-1.6 4.8-.2.5-.7 2.9-.7 3.3 0 1.7.5 2.9 1.7 4 2 1.8 5.7 3.3 10.1 4 1.8.3 3.5.4 5.2.4 2.4 0 4.6-.3 6.3-.8.1 0 .2-.1.3-.1.8-.2 1.9-.6 1.9-2.1 0-.1 0-.4.3-.4.2 0 .2.2.3.4.3 2-.4 3.3-2.2 3.9-2 .6-4.4.9-6.9.9h0zM9.8 37.8h-.4c-.3.1-.7.3-.9.5-.9 1.6.1 3.8 2.9 6.4l.1.1v.2c-.1.4-.2.8-.4 1.1-.2.6-.6 2.9-.7 3.7-.2 1.9.4 3.4 2.1 4.9 3.1 2.8 9.8 4.8 16.2 4.8 2.5 0 4.8-.3 6.6-.9 1.1-.4 1.8-1.1 1.9-2.1-.5.8-1.4 1.1-1.9 1.3l-.2.1c-1.7.6-3.9.9-6.4.9-1.7 0-3.5-.2-5.3-.4-4.4-.7-8.2-2.2-10.3-4.1-1.7-1.5-1.8-3.1-1.8-4.3 0-.5.6-3 .7-3.4.4-1.5 1.1-3.3 1.8-5.3l.2-.5.2.5c.3.8 1.1 1.8 1.5 2.2-.4-.9-1.2-2.8-1.3-3.8v-.2l1.2-3 .3-.7.1.7c.2.9 1.1 2.2 1.8 3-.7-1.3-1.5-3.1-1.4-4.8v-.2c.3-.7.7-1.5 1-2.2l.2-.5.2.6c.3 1.2 1.1 2.5 1.8 3.4-.5-1.5-1-3.8-1.2-5.5v-.4c.1-.3.3-.6.4-.9.2-.5.5-1 .8-1.5l.4-.5.1.5c.3 1.2 1.1 2.5 1.8 3.4a31.34 31.34 0 0 1-1.2-5.3v-.2c.3-.6.6-1.1.9-1.6h0v-.1c.2-.3.3-.5.5-.9l.2-.4.1.5c.4 1.2 1.4 2.6 2 3.3-.3-.8-1.1-3.2-1.3-5v-.1l.1-.1c.3-.5.7-1 1-1.5.2-.4.4-.6.6-.9l.3-.4.1.4c.3 1 1.1 2.2 1.8 3-.2-.9-.8-2.9-1-4.5V17l.2-.2c.9-1.4 2.3-2.5 4-3.2h.1l-.5-1c-.1-.1-.1-.3-.2-.4l.1-.2v-.1c0-.1-.1-.1-.1-.2v-.1l-.2-.5c0-.1-.1-.2-.1-.3s0-.1-.1-.2c-.2-.6-.4-1.3-.4-1.9-.1-.7-.1-1.4-.1-2 0-.3.1-.6.1-1 .1-.3.2-.7.3-1l.4-.6-.2-.4c-.5-1.1-1-1.7-1.7-1.7h-.1c-1.1.1-1.9.7-2.4 1.8-.4 1.1-.5 2.5-.4 4.4l.1.9-.5-.7c-1.1-1.6-1.9-2.5-3-2.5-.2 0-.3 0-.5.1-.8.2-1.2.9-1.4 1.5-.5 1.7-.1 4 1.2 6.7l.4.9-.8-.6c-1.2-1-2-1.4-2.8-1.4-.2 0-.4 0-.6.1-.9.3-1.2 1.2-1.3 1.7-.2 1.3.6 3.2 2.3 5.4l.7 1-1-.6c-.9-.6-1.7-.9-2.3-.9-.3 0-.6.1-.8.2-.8.5-1 1.4-1 2 0 1.1.6 2.4 1.8 3.9l.8.9-1-.6c-.7-.4-1.3-.6-1.8-.6-.3 0-.6.1-.9.3-.6.5-.9 1.1-.9 1.8-.1 1.2.7 2.6 2.1 4.4l.9 1.1-1.2-.8c-1-.6-1.6-.8-2.3-.8-.3 0-.7.3-.9.6-1.4 1.8.6 4.5 1.9 6l.8.9-1.1-.6c-.7-.6-1.3-.7-1.8-.7zm28.6-24.7l.6.3c1.5.7 2.6 1.8 3.4 3.3.4.8.8 1.4 1.1 2.1.2-.1.6-.2.8-.3-.3-.5-.6-.9-.8-1.5l-.1-.2.2-.1c.4-.2.9-.4 1.5-.4a3.73 3.73 0 0 1 1.2.2c.1.1.3 0 .4-.1.1-.2 0-.4-.1-.5-.3-.2-.8-.3-1.4-.3s-1.3.2-1.8.4l-.2.1H43c-.6-1-1.3-1.9-2.3-2.6l-.1-.1-.9-.6-.2-.1.2-.2c.8-.8 1.4-1.3 2.1-1.8 1.3-.9 1.6-1.6 1.5-2-.1-.2-.3-.4-.6-.4s-.6.1-.8.3c-1.2.9-2.3 2.5-2.9 3.6l-.1.2-.2-.1c-.2-.1-.5-.2-.7-.2l-.2-.1.1-.2c.3-.7.7-1.4 1.2-2.2.6-.9 1.2-1.7 1.9-2.4.4-.4.8-.7 1.1-1 .4-.3.8-.5 1.3-.7.4-.2.9-.3 1.4-.3h1.1l.2.1h.1l-.2.3c.1 0 .1.1.1.1h0l.1.1c.1.1.1.1.2.1l.1.1c.1.1.3.3.4.5s.1.5.2.7h0c0 .2.1.4 0 .7v.5s0 .1-.1.1l-.1.1c0 .1-.1.2-.1.2v.1s0 .1-.1.1v.1c0 .1-.1.1-.1.1-.2.4-.6.8-1 1.1-.6.5-1.3.9-2 1.3l-.6.3c-.3.2-.5.3-.8.5.3-.1.6-.2.8-.4.1-.1.2-.1.3-.1.4-.1.8-.3 1.1-.5.6-.2 1-.5 1.4-.8.5-.3.9-.7 1.2-1.1.1-.1.1-.2.2-.3l.1-.1c.1-.1.1-.2.2-.3l.1-.2s0-.1.1-.1v-.1l.2-.4c.1-.2.1-.5 0-.9-.1-.2-.1-.6-.2-.9a3.04 3.04 0 0 0-.5-.7l-.3-.3-.2-.1-.3-.2h-.1l-.2-.1s-.1 0-.1-.1h-.4c-.1 0-.2-.1-.3-.1h-.4a3.53 3.53 0 0 0-1.7.4c-.2.1-.5.2-.8.4l-.3.2v-.1l-.2.1c-2.5 1.4-4 4.9-4.1 5.7l-.2 1.5-.2-1.8c-.1-.9.2-2.5 1.4-4 .8-1 2.2-2.1 3-2.1h.2c-.1-.3-.2-.6-.4-.9-.5-.6-1.2-1-1.9-1-.3 0-.6.1-.9.2-.5.2-.9.5-1.5.9l-.3.3v-.5c0-.2 0-.5-.1-.8l-.3-.9c-.1-.3-.3-.6-.5-.8a.78.78 0 0 0-.4-.4c-.1-.1-.3-.2-.4-.3a12.59 12.59 0 0 0-1-.3c-.3 0-.6 0-1 .1l-.9.3c-.1.1-.3.1-.4.2l-.1.1-.3.2c-.5.3-.9.8-1.3 1.4-.2.3-.3.7-.5 1.1L29.6 5c-.1.3-.1.6-.1.9v.9c0 .6.1 1.2.1 1.9.1.7.2 1.3.3 1.8v.2c0-.4 0-.7-.1-1V8c0-.6.1-1.2.1-1.7.1-.6.2-1.1.4-1.7s.4-1.1.7-1.5c.3-.5.6-.9 1-1.2l.3-.3c.1-.1.2-.1.4-.2.3-.1.5-.2.8-.2.2-.1.4-.1.6-.1.3 0 .6.1.9.2.1.1.2.1.3.2s.2.1.3.2c.2.2.3.4.4.6s.2.5.3.8.1.6.1.8c0 .5 0 1-.2 1.6-.2.8-.6 1.7-.9 2.5-.1.2-.2.5-.3.8-.1.2-.2.5-.3.8s-.2.6-.3.8c0 .1-.1.2-.1.3h0c-.1.3-.2.6-.3.8v.1h-.2c-.4 0-.7.1-1 .1l-.3.1v-.3c.1-1.2.4-2.1.6-3 .5-1.7.2-2.4.1-2.6-.1-.1-.2-.2-.4-.2-.4 0-.8.4-1 1-.5 1.7-.3 3.8 0 5.1l.1.2-.2.1c-.4.1-.8.3-1.1.4h-.1l.2.8c1.2-.6 2.5-.9 4.1-.9h.1c1.9.8 3.7 2.4 4.6 4.1-.1-1.1-.2-2.2-.6-3l-.5-.4zm1.8-.5c.2.1.4.2.6.4.5-.5 1.2-1 2.1-1.5l.6-.3c.7-.4 1.4-.8 2-1.2.4-.3.6-.6.9-1l.1-.1v-.1s0-.1.1-.1v-.1c0-.1.1-.1.1-.2l.1-.2v-.9c0-.2-.1-.4-.2-.5h0c-.1-.2-.2-.3-.3-.4l-.5-.5h-.1l-.1-.1h-.9c-.4 0-.8.1-1.2.2l-1.2.6c-.4.3-.7.6-1.1.9-.6.6-1.3 1.4-1.8 2.3-.4.7-.8 1.3-1 1.9.1 0 .2.1.4.1.6-1.2 1.7-2.7 2.9-3.6.3-.2.7-.4 1.1-.4.5 0 .9.2 1 .6.2.5.2 1.4-1.6 2.6-.7.5-1.3 1-2 1.6h0zM32.5 2.1l-.2.1c-.3.2-.6.6-.9 1-.2.4-.4.9-.6 1.4l-.3 1.6c-.1.5-.1 1.1-.1 1.7v1.7c0 .3 0 .5.1.8 0 .3.1.6.1.8s.1.5.1.7c.2-.1.5-.2.7-.3-.3-1.4-.4-3.5.1-5.1.2-.8.8-1.3 1.4-1.3.3 0 .6.1.8.4.3.4.5 1.2 0 3-.2.8-.5 1.6-.6 2.7l.6-.1c.1-.2.1-.4.2-.7 0-.1.1-.2.1-.3l.3-.9c.1-.3.2-.6.3-.8.1-.3.2-.5.3-.8.4-.8.7-1.6.9-2.4.1-.6.2-1.1.2-1.5 0-.2-.1-.4-.1-.7-.1-.2-.1-.5-.2-.6-.1-.2-.2-.4-.4-.5-.2 0-.2-.1-.3-.1-.1-.1-.2-.1-.2-.1-.2-.1-.4-.1-.7-.1-.2 0-.3 0-.5.1s-.4.1-.6.2c-.2-.1-.3 0-.5.1h0zm7 4.7l-.5.5c-.5.6-.8 1.2-1 1.7.4-.7.9-1.5 1.5-2.2zM12.4 43.1l-1.2-.3c-.4-.1-1.5-.6-1.9-1.7-.3-.8-.2-2.1 0-2.5l.4-.7v.8c0 1.7 1.3 3.5 1.7 3.7l1 .7zm-2.9-2.9c0 .3.1.6.2.8.2.4.4.7.6.9-.3-.5-.7-1.1-.8-1.7zm4.7-2.9l-1.2-.2c-.4-.1-1.6-.5-2.2-1.7-.5-.9-.5-2.4-.3-2.9l.3-.8.1.9c.2 2 1.8 3.9 2.3 4.1l1 .6zm-3.3-3.2c.1.4.2.8.3 1.1.2.5.6.8.9 1.1-.4-.6-.9-1.4-1.2-2.2zm5.6-2l-1.2-.1c-.5-.1-1.9-.6-2.7-2-.5-1-.6-2.7-.3-3.2l.3-.8.1.8c.3 2.3 2.1 4.5 2.7 4.8l1.1.5zm-3.9-3.9c.1.5.2 1.1.4 1.6.4.6.8 1.1 1.3 1.4-.6-.8-1.3-1.8-1.7-3zm6.1-2.1l-1.2-.2c-.5-.1-1.9-.6-2.7-2-.5-1-.6-2.7-.3-3.2l.3-.8.1.8c.3 2.3 2.1 4.5 2.7 4.8l1.1.6zm-3.9-4c.1.5.2 1.1.4 1.6.4.6.8 1.1 1.3 1.4-.6-.7-1.3-1.8-1.7-3zm6.2-1.7l-1.2-.3c-.5-.1-2.1-.8-2.8-2.4-.5-1.2-.4-3 0-3.6l.4-.7v.8c.1 2.7 2.1 5.2 2.6 5.5l1 .7zm-4-4.9c0 .7.1 1.5.3 2 .4.8 1 1.4 1.5 1.7-.6-.8-1.4-2.2-1.8-3.7zm7.2-.1l-1.4-.7c-.8-.4-1.9-1.7-2.4-3.5-.3-1.3 0-3.3.5-4l.5-.8-.1.9c-.3 2.9 1.2 6.5 1.8 7l1.1 1.1zm-3.3-6.6c-.1.7-.1 1.6 0 2.2.2 1 .7 1.8 1.2 2.4-.2-.5-.4-1-.6-1.6-.3-.7-.5-1.8-.6-3zm7.6 3l-1.2-1c-.7-.6-1.5-2.1-1.6-3.9-.1-1.3.6-3.2 1.2-3.8l.6-.6-.3.9c-.9 2.8-.1 6.6.3 7.3l1 1.1zm-1.9-7.1c-.2.7-.4 1.5-.4 2.2 0 1.1.3 1.9.6 2.6-.1-.5-.2-1.1-.3-1.7-.1-.8-.1-1.9.1-3.1zm21.7 14.8h0c-.1 0 0 0 0 0zm-.2 5.5h0zm-2.5.9c.2 0 .5-.1.7-.1-.3 0-.5.1-.7.1zm-.1 0h0zm2.7-6.2c0-.1 0-.1 0 0 0-.1 0 0 0 0zm.2-.1h0zm.3 5.1l-.1.1c0-.1.1-.1.1-.1z"/>
  <path d="M43.7 19s-2.4 1.3-1.7 4.4c0 0 .4 2.5 3.4 2.5 0 0 1.9.1 3.5-1.2 0 0 .6-.3.8-1.3 0 0-.2.9-.9 1.2 0 0-.6.4-1.5.6 0 0-1.8.5-3.2-.3 0 0-1.4-.5-1.4-2.4 0 0-.3-1.8 1.2-2.9 0 0 2.2-1.5 4.2-.2a3.68 3.68 0 0 0 1.5 2.8s-.1-2.6-2.4-3.6c0 0-1-.5-2.6-.2.3.1-.7.4-.9.6zM27.2 45.2c-.4 0-.8.3-1 .5 0-.4-.2-.8-.4-1.1-.3-.3-.7-.5-1.2-.5-.4 0-.6.2-.9.6-.5.9-.5 2.6 0 3.8.3.7.9 1.5 1.7 1.5.6 0 1.2-.5 1.7-1.5.2-.4.4-.7.5-1 .4-.8.8-1.4.3-1.9-.2-.2-.4-.4-.7-.4h0zm.1 2.1c-.2.3-.4.6-.5 1-.4.9-.9 1.3-1.3 1.3-.5 0-1-.5-1.3-1.2-.5-1.1-.5-2.6-.1-3.4.1-.2.3-.4.5-.4h.1c.3 0 .5.1.7.3.3.4.4.9.3 1.5l-.3 1.4.7-1.2c.1-.3.6-.9 1.1-.9.2 0 .3.1.5.2.2.3 0 .6-.4 1.4zm36.4-13.4c-2.1-4-5.1-5.4-8.3-6.9-1.5-.7-4.4-2.4-5.4-3.1 0 0-.1.2-.4.7.1-.1.1-.2.2-.2 1.8 1.4 3.7 2.2 5.5 3 3.1 1.4 6 2.8 8.1 6.7 1.8 3.3 2.2 7.1 1.2 10.7-1 3.7-3.5 6.8-7 9-.9.6-5.7 3.4-11.4 3.4-3.1 0-5.9-.8-8.4-2.5-.1 0-.1-.1-.2-.1-.3-.2-.9-.6-1.4-1h0c-.1 0-.1-.1-.1-.1-1.7-1.9-3.5-4.7-5-7.6l-.1-.2-.2.1c-1.1.4-1.9 1.9-2.8 3.3-.7 1.1-1.4 2.2-1.9 2.4-.2.1-.5.1-.7.1-1.2 0-1.9-1.3-2.2-2.4-.7-2.1-.7-5.3 0-8.2.8-3.4 2.2-6 4.2-7.4l.1-.1v-.9l-.3.2c-.2.1-.3.2-.5.4-.1.1-.5.4-.7.5.1-.3.2-.5.4-.8.3-.5.7-.8 1.2-1h.1c.1 0 .2-.1.3-.1h.4c.3 0 .5.2.8.4.2.2.4.5.5.8a3.04 3.04 0 0 0-.7-.5c-.2-.1-.3-.1-.4-.1l-.4-.1.1.3v.2c-.1 6.5 4.6 15.3 8 19.3h0c2.8 2.7 6.2 4.1 10 4.1 5.4 0 10-2.7 10.9-3.2 6.7-4.2 9-12 5.5-18.6-1.9-3.7-4.6-4.9-7.7-6.3-1.8-.8-3.7-1.7-5.6-3.1l-.3.3c1.9 1.5 3.8 2.3 5.7 3.2 3 1.4 5.7 2.6 7.5 6.1 3.4 6.4 1.1 14-5.4 18-.8.5-5.4 3.2-10.7 3.2-3.7 0-7-1.3-9.7-3.9-3.3-4.1-8-12.6-7.9-19.1h0c.2.1.4.3.6.5.1.1.2.1.3.1s.2-.1.3-.2.1-.2.1-.3c-.1-.4-.3-.8-.6-1.1-.2-.2-.6-.4-1-.5h-.5c-.1 0-.3.1-.4.1h-.1c-.6.2-1 .6-1.4 1.1-.2.4-.4.8-.5 1.2 0 .1 0 .2.1.3s.3.2.4.1c-3.5 3.7-4.4 11.2-3.1 15 .5 1.7 1.5 2.7 2.7 2.7.3 0 .6-.1.9-.2.7-.2 1.4-1.4 2.2-2.6.7-1.2 1.6-2.5 2.4-3 1.5 2.9 3.3 5.7 4.9 7.5l.2.2c.4.4 1.1.8 1.4 1 .1.1.1.1.2.1 2.5 1.7 5.5 2.6 8.7 2.6 5.8 0 10.7-2.8 11.6-3.4 3.7-2.3 6.1-5.5 7.2-9.3.7-3.5.3-7.4-1.5-10.8h0z"/>
  <path d="M63.5 34c-2.1-4-5.1-5.3-8.2-6.8-1.8-.8-3.6-1.7-5.5-3 0 0-.4.8-.7 1 1.9 1.4 3.8 2.3 5.7 3.1 3.1 1.4 5.7 2.6 7.6 6.2 3.4 6.5 1.1 14.2-5.5 18.3-1.2.8-12.3 7.3-20.7-.8-3.5-4.3-8-12.9-8-19.2 0-.1 0-.2-.1-.3.1 0 .2.1.4.1a3.04 3.04 0 0 1 .7.5c.1.1.4 0 .3-.2-.1-.4-.2-.7-.6-1-.2-.2-.6-.4-.9-.4-.2-.1-.4 0-.5 0-.2 0-.3.1-.5.1-.6.2-1 .6-1.3 1.1-.2.4-.4.7-.5 1.1 0 .2.1.2.2.1s.7-.6.9-.7.3-.2.5-.4v.4c-6.2 4.4-6.1 20-1 18.2 1.4-.5 2.9-5 4.8-5.7 1.5 2.9 3.3 5.7 5 7.7.1.1.1.1.2.1.5.5 1.4 1 1.6 1.1 2.8 1.9 5.8 2.6 8.5 2.6 5.8 0 10.7-2.9 11.5-3.4 3.6-2.2 6.1-5.4 7.1-9.1 1.2-3.5.8-7.3-1-10.7zM27 48.4c-1.1 2.3-2.5 1.4-3.1.1-.6-1.5-.5-4 .6-4.1s1.5 1.1 1.4 2.1c0 0 .9-1.7 1.9-.7.6.5-.2 1.3-.8 2.6h0z"/>
</svg>