<?xml version="1.0" encoding="utf-8"?>
<!-- Generator: Adobe Illustrator 14.0.0, SVG Export Plug-In . SVG Version: 6.00 Build 43363)  -->
<!DOCTYPE svg PUBLIC "-//W3C//DTD SVG 1.1//EN" "http://www.w3.org/Graphics/SVG/1.1/DTD/svg11.dtd">
<svg version="1.1" id="Layer_1" xmlns="http://www.w3.org/2000/svg" xmlns:xlink="http://www.w3.org/1999/xlink" x="0px" y="0px"
	 width="446px" height="463.23px" viewBox="93.5 153.5 446 463.23" enable-background="new 93.5 153.5 446 463.23"
	 xml:space="preserve">
<g>
	<g>
		<g>
			<rect x="297.257" y="342.571" fill="#162442" width="8.851" height="61.956"/>
		</g>
		<g>
			<path fill="#162442" d="M323.162,378.838l8.203,25.689h9.714l-9.498-26.553c2.158-0.863,3.67-1.943,4.533-3.67
				s1.295-4.102,1.295-6.692v-13.6c0-1.511-0.216-3.022-0.432-4.533c-0.432-1.511-0.863-2.591-1.727-3.67
				c-0.863-1.08-1.943-1.727-3.454-2.375c-1.511-0.648-3.238-0.864-5.396-0.864h-12.089v61.956h8.851V378.838L323.162,378.838z
				 M323.162,350.99h2.806c1.08,0,1.943,0.216,2.159,0.648c0.432,0.432,0.647,1.295,0.647,2.159v13.6
				c0,1.079-0.216,1.943-0.647,2.375c-0.216,0.432-1.079,0.647-2.159,0.647h-2.806V350.99z"/>
		</g>
		<g>
			<polygon fill="#162442" points="365.041,395.892 354.031,395.892 354.031,377.327 363.53,377.327 363.53,369.124 
				354.031,369.124 354.031,350.99 365.041,350.99 365.041,342.571 345.181,342.571 345.181,404.527 365.041,404.527 			"/>
		</g>
		<g>
			<path fill="#162442" d="M230.768,448.997c0.864-0.647,1.511-1.512,1.943-2.375c0.648-1.511,1.08-3.238,1.08-5.181v-12.521
				c0-1.728-0.216-3.022-0.432-4.317c-0.432-1.296-0.864-2.591-1.943-3.454c-0.864-0.864-2.159-1.511-3.67-1.942
				c-1.511-0.433-3.238-0.648-5.397-0.648h-8.635l0,0h-4.317c0,0,1.511,0.648,1.511,3.022l0,0v56.127l0,0
				c0,2.375-1.511,3.022-1.511,3.022h6.26h7.34c2.159,0,3.885-0.216,5.396-0.864c1.511-0.647,2.591-1.295,3.454-2.374
				s1.511-2.159,1.727-3.67c0.216-1.295,0.432-2.807,0.432-4.533v-12.521c0-2.159-0.432-3.886-1.08-5.397
				C232.495,450.508,231.848,449.645,230.768,448.997z M219.759,426.978h2.59c1.08,0,1.943,0.216,2.159,0.647
				c0.432,0.433,0.648,1.296,0.648,2.159v11.873c0,1.079-0.216,1.942-0.648,2.591c-0.432,0.432-1.079,0.647-2.159,0.647h-2.59
				V426.978z M225.372,469.073c0,1.079-0.216,1.727-0.648,2.158c-0.216,0.432-1.079,0.648-2.159,0.648h-3.022v-18.565h3.022
				c1.08,0,1.727,0.216,2.159,0.647c0.432,0.647,0.648,1.511,0.648,2.591V469.073z"/>
		</g>
		<g>
			<path fill="#162442" d="M249.549,454.825l8.203,25.689h9.714l-9.499-26.553c2.159-0.863,3.67-1.942,4.533-3.67
				c0.864-1.727,1.295-4.102,1.295-6.692V430c0-1.511-0.216-3.022-0.432-4.533c-0.432-1.512-0.864-2.591-1.727-3.67
				c-0.864-1.08-1.943-1.727-3.454-2.375c-1.511-0.647-3.238-0.863-5.397-0.863h-12.089v61.956h8.851V454.825z M249.549,426.978
				h2.806c1.08,0,1.943,0.216,2.159,0.647c0.432,0.433,0.648,1.296,0.648,2.159v13.6c0,1.08-0.216,1.943-0.648,2.375
				c-0.216,0.432-1.079,0.647-2.159,0.647h-2.806V426.978z"/>
		</g>
		<g>
			<rect x="272.647" y="418.343" fill="#162442" width="8.851" height="61.956"/>
		</g>
		<g>
			<path fill="#162442" d="M301.143,453.314h1.943v16.406c0,1.079-0.216,1.942-0.647,2.591c-0.216,0.216-0.433,0.863-2.159,0.863
				s-1.942-0.647-2.159-0.863c-0.432-0.648-0.647-1.512-0.647-2.591v-40.584c0-1.079,0.216-1.943,0.647-2.591
				c0.432-0.432,1.08-0.863,2.159-0.863c1.727,0,1.943,0.647,2.159,0.863c0.432,0.647,0.647,1.512,0.647,2.591v7.771h8.635v-7.771
				c0-1.728-0.216-3.238-0.647-4.533c-0.432-1.512-1.08-2.591-1.943-3.67c-0.863-1.08-2.158-1.943-3.67-2.591
				c-1.511-0.647-3.237-0.863-5.396-0.863c-2.159,0-4.102,0.216-5.397,0.863c-1.511,0.647-2.806,1.511-3.669,2.374
				c-0.864,1.08-1.511,2.375-1.943,3.887c-0.432,1.295-0.432,2.806-0.432,4.533v40.584c0,1.511,0.216,3.022,0.432,4.533
				c0.432,1.512,1.079,2.807,1.943,3.886c0.863,1.079,2.159,1.943,3.669,2.375c1.511,0.647,3.238,0.863,5.397,0.863
				c2.159,0,4.102-0.216,5.396-0.863c1.512-0.647,2.807-1.512,3.67-2.375c0.863-1.079,1.512-2.374,1.943-3.886
				c0.432-1.295,0.432-2.807,0.432-4.533v-24.825h-10.794v8.419H301.143L301.143,453.314z"/>
		</g>
		<g>
			<path fill="#162442" d="M334.172,480.515h9.066l-7.987-61.956h-10.362l-7.987,61.956h9.066l1.296-12.953h5.828L334.172,480.515z
				 M327.911,459.143l1.942-19.212l1.943,19.212H327.911z"/>
		</g>
		<g>
			<path fill="#162442" d="M369.143,477.276c0.863-1.079,1.512-2.159,1.943-3.67c0.432-1.295,0.432-2.807,0.432-4.533V430
				c0-1.511-0.216-3.022-0.432-4.533c-0.432-1.512-1.08-2.807-1.943-3.67c-0.863-1.08-2.158-1.727-3.67-2.375
				c-1.511-0.647-3.237-0.863-5.396-0.863h-11.873v61.956h12.089c2.159,0,4.102-0.216,5.396-0.864
				C366.984,479.003,368.279,478.14,369.143,477.276z M362.667,469.073c0,1.079-0.216,1.727-0.647,2.158
				c-0.217,0.432-1.08,0.648-2.159,0.648h-3.022v-44.902h3.022c1.079,0,1.942,0.216,2.159,0.647
				c0.432,0.433,0.647,1.296,0.647,2.159V469.073z"/>
		</g>
		<g>
			<polygon fill="#162442" points="377.994,480.515 397.638,480.515 397.638,471.879 386.845,471.879 386.845,453.314 
				396.343,453.314 396.343,444.896 386.845,444.896 386.845,426.978 397.638,426.978 397.638,418.343 377.994,418.343 			"/>
		</g>
		<g>
			<path fill="#162442" d="M426.133,436.908v-7.771c0-1.512-0.216-3.022-0.432-4.533c-0.432-1.512-1.079-2.807-1.942-3.887
				c-0.863-1.078-2.159-1.942-3.67-2.59s-3.238-0.863-5.396-0.863c-2.159,0-4.102,0.216-5.397,0.863
				c-1.511,0.647-2.806,1.512-3.67,2.59c-0.863,1.08-1.511,2.375-1.942,3.887c-0.432,1.295-0.432,2.806-0.432,4.533v5.396
				c0,3.238,0.432,5.613,1.079,7.556c0.863,1.943,1.728,3.454,2.807,4.533c1.079,1.295,2.374,2.159,3.67,3.022
				c1.079,0.647,2.158,1.727,3.238,2.591c0.863,1.079,1.727,2.158,2.374,3.886c0.647,1.511,1.079,3.669,1.079,6.26v7.34
				c0,1.079-0.216,1.942-0.647,2.591c-0.216,0.432-1.079,0.863-2.158,0.863c-1.512,0-1.943-0.647-2.159-0.863
				c-0.432-0.648-0.647-1.512-0.647-2.591v-8.419h-8.851v8.419c0,1.511,0.216,3.022,0.432,4.533
				c0.432,1.511,1.079,2.807,1.942,3.886c0.864,1.079,2.159,1.943,3.67,2.591c1.512,0.647,3.238,0.863,5.397,0.863
				c2.158,0,4.102-0.216,5.396-0.863c1.511-0.647,2.807-1.512,3.67-2.591s1.511-2.375,1.942-3.886
				c0.432-1.295,0.432-2.807,0.432-4.533v-7.556c0-3.454-0.432-6.26-1.079-8.419s-1.727-3.886-2.807-5.181
				c-1.079-1.296-2.374-2.591-3.669-3.454c-1.296-0.863-2.375-1.512-3.238-2.591c-0.863-0.863-1.728-1.942-2.375-3.238
				c-0.647-1.295-0.863-3.021-0.863-5.181v-4.965c0-1.079,0.216-1.943,0.647-2.591c0.216-0.432,1.079-0.863,2.159-0.863
				c1.079,0,1.727,0.216,2.158,0.863s0.647,1.512,0.647,2.591v7.771H426.133L426.133,436.908z"/>
		</g>
		<g>
			<path fill="#162442" d="M296.394,515.054c0,4.102,0,8.203,0.216,11.873c0,0.647,0,1.08,0,1.728l-9.066-34.324h-8.419v61.956
				h8.635v-20.725c0-4.317,0-8.203-0.216-12.089c0-0.647,0-1.079,0-1.727l9.066,34.54h8.419V494.33h-8.635V515.054z"/>
		</g>
		<g>
			<rect x="313.016" y="494.33" fill="#162442" width="8.851" height="61.956"/>
		</g>
		<g>
			<path fill="#162442" d="M349.93,496.921c-0.863-1.08-2.158-1.943-3.669-2.375c-1.512-0.647-3.238-0.863-5.397-0.863
				c-2.158,0-4.102,0.216-5.396,0.863c-1.512,0.647-2.807,1.512-3.67,2.375c-0.863,1.079-1.511,2.374-1.943,3.886
				c-0.432,1.295-0.432,2.806-0.432,4.533v40.584c0,1.727,0.216,3.238,0.432,4.533c0.433,1.512,1.08,2.807,1.943,3.886
				s2.158,1.943,3.67,2.375c1.511,0.647,3.238,0.863,5.396,0.863c2.159,0,4.102-0.216,5.397-0.863
				c1.511-0.647,2.806-1.512,3.669-2.375c0.864-1.079,1.512-2.374,1.943-3.886c0.432-1.295,0.432-2.807,0.432-4.533V505.34
				c0-1.511-0.216-3.022-0.432-4.533C351.441,499.079,350.794,497.784,349.93,496.921z M343.454,545.708
				c0,1.079-0.216,1.942-0.647,2.591c-0.216,0.216-0.432,0.863-2.159,0.863c-1.727,0-1.942-0.647-2.158-0.863
				c-0.433-0.648-0.648-1.512-0.648-2.591v-40.584c0-1.079,0.216-1.943,0.648-2.591c0.216-0.216,0.432-0.863,2.158-0.863
				c1.079,0,1.728,0.216,2.159,0.863s0.647,1.512,0.647,2.591V545.708z"/>
		</g>
		<g>
			<path fill="#162442" d="M376.698,515.054c0,4.102,0,8.203,0.216,11.873c0,0.647,0,1.08,0,1.728l-9.066-34.324h-8.419v61.956
				h8.635v-20.725c0-4.317,0-8.203-0.216-12.089c0-0.647,0-1.079,0-1.727l9.066,34.54h8.419V494.33h-8.635V515.054z"/>
		</g>
		<g>
			<path fill="#162442" d="M265.74,494.33h-3.238v51.378c0,1.079-0.216,1.942-0.647,2.591c-0.216,0.216-0.432,0.863-2.159,0.863
				s-1.943-0.647-2.159-0.863c-0.432-0.648-0.648-1.512-0.648-2.591V494.33h-3.238l0,0h-7.124c0,0,1.295,0.647,1.511,2.591v48.787
				c0,1.511,0.216,3.022,0.432,4.533c0.432,1.511,1.08,2.807,1.943,3.886c0.864,1.079,2.159,1.943,3.67,2.375
				c1.511,0.647,3.238,0.863,5.397,0.863s4.102-0.216,5.396-0.863c1.511-0.647,2.807-1.512,3.67-2.375
				c0.864-1.079,1.511-2.375,1.943-3.886c0.432-1.295,0.432-2.807,0.432-4.533v-48.355l0,0c0-2.375,1.511-3.022,1.511-3.022H265.74
				L265.74,494.33z"/>
		</g>
		<g>
			<path fill="#162442" d="M291.86,350.99v-8.635h-20.724c0,0,1.511,0.648,1.511,3.022c0,1.943,0,45.765,0,56.559
				c-0.216,1.942-1.511,2.591-1.511,2.591h10.362l0,0v-27.2h9.066v-8.419h-9.066V350.99H291.86z"/>
		</g>
	</g>
	<g>
		<path fill="#A71B34" d="M429.371,322.279c-22.019-35.835-3.238-47.276-18.78-70.59c-8.419-12.521-9.715-17.27-7.34-32.381
			c0,0-18.35,23.962-12.521,50.73C396.343,296.807,407.353,304.362,429.371,322.279z"/>
		<path fill="#A71B34" d="M533.854,411.436c-14.031,2.374-16.622,24.393-22.019,32.164c-1.511,2.159-4.102,3.022-6.477,1.943
			c-1.727-0.863-3.021-2.375-3.021-5.181c-0.216-13.385,17.27-46.845,9.066-70.159c-10.362-29.791-24.394-25.689-48.355-52.889
			c-14.248-16.19-18.565-30.438-17.271-53.321c-10.577,16.406-17.054,46.844,0.864,73.613
			c18.133,26.768,42.095,60.013,42.095,115.492c0,68.863-44.47,139.454-122.615,163.416c0,0,53.536-1.512,99.517-35.619
			c39.937-29.575,36.051-42.096,54.616-49.436c-14.248-3.454-22.451,3.67-26.984,7.124c-2.158,1.728-4.965,1.943-6.907-0.216
			c-1.728-2.158-1.08-4.533,0.216-5.828c3.67-3.67,13.384-8.636,25.688-22.451c7.987-9.066,15.543-24.178,17.27-40.152
			C533.206,439.066,522.845,427.193,533.854,411.436z"/>
		<path fill="#A71B34" d="M143.124,453.099c0-55.479,23.962-88.724,42.095-115.492c18.133-26.769,11.441-57.422,0.863-73.613
			c1.295,23.098-3.022,37.346-17.27,53.321c-23.962,27.2-37.777,23.098-48.355,52.889c-8.203,23.314,9.283,56.774,9.067,70.159
			c0,2.59-1.295,4.317-3.022,5.181c-2.375,1.079-4.749,0.216-6.476-1.943c-5.397-7.771-7.987-29.79-22.019-32.164
			c11.009,15.758,0.647,27.631,3.886,58.717c1.727,15.759,9.283,31.086,17.27,40.152c12.089,13.816,21.803,18.781,25.688,22.451
			c1.295,1.295,1.943,3.67,0.216,5.828c-1.727,2.159-4.749,1.943-6.908,0.216c-4.533-3.454-12.736-10.793-26.984-7.124
			c18.781,7.124,14.895,19.86,54.616,49.436c45.981,34.107,99.518,35.619,99.518,35.619
			C187.594,592.553,143.124,521.962,143.124,453.099z"/>
		<path fill="#A71B34" d="M283.226,176.565c2.59,1.727,4.102,4.102,4.533,7.34c0.216,2.159-0.216,4.102-1.295,6.044l2.375-0.432
			c4.318-3.454,11.657-6.477,20.724-7.771c14.68-2.159,31.302,2.806,41.232,13.384c10.577,11.225,12.521,24.609,14.247,38.641
			c0.647,5.613,6.908-15.975,1.296-33.029c-4.75-14.463-13.385-27.2-28.928-35.403c-15.11-6.477-28.495-6.908-37.777-6.044l0,0
			c-3.886,0.432-7.124,1.079-9.283,1.727c-0.432,0-1.079,0.216-1.511,0.432c-0.432,0-0.648,0.216-0.864,0.216
			c-0.432,0.216-0.863,0.216-1.295,0.432h-0.216c-2.159,0.863-4.102,2.159-5.829,4.102c-0.432,0.432-0.863,1.08-1.079,1.727
			c-0.863,2.59-0.647,4.749,1.079,6.908C281.499,175.27,282.362,175.917,283.226,176.565z"/>
		<path fill="#A71B34" d="M228.825,300.908c17.054-10.578,24.826-38.642,21.372-54.832c-4.749-21.372-18.565-24.609-18.565-24.609
			c2.806,1.943,13.816,12.736,7.124,28.279c-4.749,11.009-11.441,7.987-20.724,23.746c-8.635,14.679-3.67,25.473-14.463,46.628
			C213.499,309.975,216.736,308.679,228.825,300.908z"/>
		<path fill="#A71B34" d="M301.358,299.397c-0.647-1.295-1.727-1.727-3.021-0.864c-1.512,1.08-3.238,1.511-4.965,1.943
			l-19.213,3.886c-1.295,0.216-1.943-1.079-3.022-1.295c-1.295-0.216-1.727,1.943-2.807,2.375c-0.647,0.432-4.533,1.295-5.613,1.727
			c-1.511,0.432-3.022,0.647-4.533,0c-0.647-0.216-1.943-0.432-2.375,0.647c0,0.216,0,0.432,0,0.647l3.886,15.111
			c0,0.216,0.216,0.216,0.216,0.432c0.647,0.864,1.727,0,2.375-0.647c1.08-1.295,2.59-1.727,4.102-2.159
			c1.08-0.216,4.965-1.295,5.829-1.295c1.08,0,2.375,1.511,3.454,0.863c0.863-0.647,0.863-2.159,2.159-2.59l18.781-5.613
			c1.728-0.432,3.454-1.079,5.396-0.647c1.512,0.216,2.375-0.647,2.375-2.159c0-0.216,0-0.432-0.216-0.647
			c-0.216-1.295-1.942-7.987-2.375-9.067C301.574,299.829,301.358,299.613,301.358,299.397z M298.121,303.714l-22.882,6.476
			l-0.648-2.806L298.121,303.714C298.121,303.499,298.121,303.714,298.121,303.714z"/>
		<path fill="#A71B34" d="M470.604,431.079c-5.397-39.073-25.042-74.26-55.479-99.301c-23.746-19.429-52.241-31.302-82.248-34.324
			c-0.647,0-1.079,0.216-1.295,0.863l-3.022,12.089c-0.216,0.648,0.216,1.295,1.079,1.295c27.848,2.59,54.185,13.384,76.203,31.301
			c27.632,22.667,45.55,54.616,50.299,90.02c11.01,79.873-47.708,153.701-129.308,159.746
			c-74.261,5.612-140.965-48.787-150.248-122.832c-3.886-30.223,1.943-60.229,16.838-86.781
			c14.032-24.826,35.619-45.333,61.092-57.638c0,0,1.295-0.432,0.864-1.727l-3.238-12.089c0,0-0.216-0.864-1.295-0.647
			c-29.359,13.6-54.185,36.698-70.159,64.978c-17.27,30.87-23.53,65.841-17.917,100.813
			c12.737,79.226,85.054,136.432,165.143,130.387C418.146,600.324,482.692,519.155,470.604,431.079z"/>
		<path fill="#A71B34" d="M251.924,290.978c15.543-6.692,34.755-11.441,55.479-12.736l2.158,33.46h6.477h6.477l2.158-33.676
			c19.429,0.647,39.937,4.749,60.013,13.384c0.647,0.216,1.079-0.432,0.647-0.864c-7.556-6.26-24.394-23.53-27.848-50.73
			c-0.432-3.022-0.432-6.26-0.432-9.714c0-22.019-17.701-39.721-39.721-39.721c-10.361,0-17.485,4.102-17.485,4.102
			c-13.168,6.477-22.235,20.292-22.235,35.619c0,30.654-19.645,53.321-26.121,60.229
			C250.844,290.546,251.492,291.194,251.924,290.978z M293.156,226.647c0,0,2.159-22.882,28.495-23.962
			c0,0-15.11,10.146-17.701,27.848c-3.67,25.689-14.895,30.222-18.133,33.892C284.952,265.505,291.213,256.654,293.156,226.647z"/>
	</g>
</g>
</svg>
